<svg xmlns="http://www.w3.org/2000/svg" viewBox="0 0 1400 400" font-family="IBM Plex Sans">
  <defs>
    <marker id="arrow" markerWidth="6" markerHeight="5" refX="4" refY="2.25" orient="auto">
      <path d="M0,0 L5,2.25 L0,4.5 z" fill="#9e9e9e"/>
    </marker>
  </defs>
  <rect width="1400" height="400" fill="#ffffff"/>

  <rect x="60" y="55" width="260" height="80" rx="10" fill="#f0f0f0"/>
  <text x="190" y="103" font-size="24" fill="#161616" text-anchor="middle">agent A</text>

  <rect x="60" y="160" width="260" height="80" rx="10" fill="#f0f0f0"/>
  <text x="190" y="208" font-size="24" fill="#161616" text-anchor="middle">agent B</text>

  <rect x="60" y="265" width="260" height="80" rx="10" fill="#f0f0f0"/>
  <text x="190" y="313" font-size="24" fill="#161616" text-anchor="middle">direct client</text>

  <line x1="320" y1="95" x2="548" y2="172" stroke="#9e9e9e" stroke-width="4" marker-end="url(#arrow)"/>
  <line x1="320" y1="200" x2="548" y2="200" stroke="#9e9e9e" stroke-width="4" marker-end="url(#arrow)"/>
  <line x1="320" y1="305" x2="548" y2="228" stroke="#9e9e9e" stroke-width="4" marker-end="url(#arrow)"/>

  <rect x="560" y="135" width="320" height="130" rx="16" fill="#161616"/>
  <text x="720" y="192" font-size="30" fill="#ffffff" text-anchor="middle">CPEX</text>
  <text x="720" y="228" font-size="19" fill="#bdbdbd" text-anchor="middle">gateway</text>

  <line x1="880" y1="200" x2="1048" y2="200" stroke="#9e9e9e" stroke-width="4" marker-end="url(#arrow)"/>

  <rect x="1060" y="150" width="280" height="100" rx="10" fill="#f0f0f0"/>
  <text x="1200" y="208" font-size="24" fill="#161616" text-anchor="middle">tool server</text>
</svg>
